# xmcd
#
# Track frame offsets: 
#        150
#        27669
#        40237
#        80295
#        103910
#        124587
#        151172
#        177910
#        204262
#        216227
#        242870
#        271305
#
# Disc length: 4092 seconds
#
# Revision: 1
# Processed by: cddbd v1.5.2PL0 Copyright (c) Steve Scherf et al.
# Submitted via: ExactAudioCopy v1.0b1
#
DISCID=a20ffa0c
DTITLE=Jimmy Thackery  and The Drivers - Feel The Heat
DYEAR=2011
DGENRE=Blues
TTITLE0=Feel The Heat
TTITLE1=Ain't Gonna Do It
TTITLE2=Blind Man In The Night
TTITLE3=Hang Up And Drive
TTITLE4=Please Accept My Love
TTITLE5=Take My Blues
TTITLE6=Bluphoria
TTITLE7=I'll Be Your Driver
TTITLE8=Bomb The Moon
TTITLE9=I'm Gone
TTITLE10=Wannabe
TTITLE11=Fading Heart
EXTD=
EXTT0=
EXTT1=
EXTT2=
EXTT3=
EXTT4=
EXTT5=
EXTT6=
EXTT7=
EXTT8=
EXTT9=
EXTT10=
EXTT11=
PLAYORDER=
